<svg width="315" height="219" viewBox="0 0 315 219" fill="none" xmlns="http://www.w3.org/2000/svg">
  <path d="M258.14 176.71c5.32-7.08 8.05-16.84 9.71-25.77 9.56-50.5-13.09-95.02-58.61-116.95-44.41-21.34-102.66-8.74-133.48 28.8-33.1 40.31-22.37 118.61 19.7 143.47 39.48 23.34 135.63 6.33 162.68-29.55z" fill="#0AF77D" fill-opacity=".1"/>
  <path d="M73.75 159.14c.18 1.24.51 2.2.78 3.43.14.65.49.82 1.15.71 2.51-.4 4.46-.55 6.7-.85 3.05-.41 6.13-.72 9.2-1.1.12 0 .24-.03.37-.06-1.08-2.86-1.2-6.87.14-9.25 2.7-4.8 11.43-4.84 12.72-1.17.94 2.67.9 5.42.78 8.18v.38l.15-.03c1.57-.25 3.13-.5 4.7-.73 3-.45 6-.9 9-1.3 1.1-.14 2.22-.2 3.34-.24.4-.02 3.17-.42 3.1-1.72-.02-.53-.15-1.06-.23-1.59l-1.15-7.8c-.72-4.8-1.46-9.6-2.2-14.4-.43-2.83-4.15-44.23-4.23-47.93-.06-2.4-.12-4.82-.3-7.22-.4-5.38-.9-10.76-1.34-16.13-.2-2.31-.24-2.33-2.48-2.04-3.7.47-7.4.92-11.1 1.34l-5.75.95c-.09 1.81-.2 3.36-.27 5.58-.02.77-.02 1.55-.1 2.32a5.22 5.22 0 01-3.39 4.58c-2.18.89-4.33.76-6.1-.76-3.25-2.8-4.53-5.14-4.49-9.35L80 63.4c-2.36.24-11.61 1.1-13.9 1.07l-.96.01c-.73.04-1.06.44-.99 1.16l.42 3.84c.4 3.76.78 7.04 1.18 10.8.76 7.24 1.52 14.46 2.25 21.7.6 6 1.17 12.01 1.73 18.02.48 5.16.94 10.32 1.4 15.47.38 4.15.7 8.3 1.16 12.43.41 3.75.94 7.5 1.47 11.24z" fill="#127CCB"/>
  <path fill-rule="evenodd" clip-rule="evenodd" d="M12.3 100.57c6.7-8.42 14.5-19.3 21.2-27.75 2.05-2.6 9.32-12.77 11.22-15 .57-.68 1.42-1.58 2.39-.3a378.6 378.6 0 005.87 13.26l4.39 9.62" fill="#0A3B5F"/>
  <path fill-rule="evenodd" clip-rule="evenodd" d="M107.39 149.2c2.97-1.1 3.6-2.34 2.53-5.3L81.1 72.35c-1-2.23-1.49-2.46-3.74-1.5l-64.45 29.2c-1.06.5-.97 1.85-.65 2.57 1.66 3.8 3.42 7.56 5.1 11.35 1.15 2.6 2.24 5.23 3.36 7.84l4.96 11.8 3.18 7.6 8.27 19.69c1.28 3.52 2.55 7.04 3.86 10.55.91 2.45 2 3.06 4.28 2.5l62.13-24.76zm-81.47-15.68l3.18 7.57-3.18-7.57-2.18-5.2 2.18 5.2z" fill="#5FCE8C"/>
  <path d="M70.3 142.07c-2.28.95-5.74 2.05-9.31 1.85-.96.12-2.2.1-3.52-.08-5.36-.7-9.16-2.94-11.6-6.84-1.47-2.32-2.35-5.04-2.77-8.55-.55-4.54.09-9.15 1.94-14.1.08-.23 2.07-5.32 9.4-8.39 6.23-2.62 19.07-.5 25 8.79 2.89 4.51 3.57 9.26 2.04 14.11a33.38 33.38 0 01-4.55 9.09c-.64.91-3.45 2.78-6.63 4.12zm-15.07-34.2c-6.52 2.73-8.25 7.16-8.27 7.2-1.73 4.64-2.32 8.94-1.82 13.14.39 3.2 1.17 5.64 2.46 7.7 2.1 3.34 5.41 5.26 10.12 5.88 1.16.15 2.24.18 3.2.07 3.35.18 6.5-.83 8.58-1.7 3.19-1.34 5.43-3 5.74-3.4a31.42 31.42 0 004.28-8.52c1.36-4.3.77-8.36-1.8-12.38-5.37-8.4-16.9-10.34-22.49-8z" fill="#fff"/>
  <path d="M69.88 142.24a5.2 5.2 0 01-4.61-.33 7 7 0 01-1.84-.93c-2.68-1.8-4.95-4.6-6.91-8.56a50.37 50.37 0 01-3.1-8.11 51.67 51.67 0 01-2.14-12.2c-.1-1.75.46-5.02 3.1-6.13 3.05-1.28 9.73 3.89 14.46 13.34 2.28 4.56 3.6 8.88 3.94 12.82.21 2.6.16 4.98-.18 7.26-.12.87-1.2 2.2-2.72 2.84zm-14.7-34.35c-1.66.7-1.9 3.21-1.85 4.12.2 3.89.87 7.72 2.06 11.71a47.22 47.22 0 002.97 7.78c1.8 3.63 3.83 6.17 6.22 7.77.51.35.98.59 1.35.69l.22.1c1.03.56 2.02.66 2.93.28a3.04 3.04 0 001.5-1.3c.3-2.07.35-4.29.15-6.74-.31-3.67-1.57-7.73-3.73-12.06-4.65-9.3-10.46-12.92-11.82-12.35z" fill="#fff"/>
  <path d="M64.08 132.55a33.57 33.57 0 01-10 2.63c-2.62.22-5.02.17-7.34-.15-.81-.12-2.06-1.08-2.75-2.47a5.16 5.16 0 01.22-4.93c.18-.57.5-1.19.95-1.84 1.84-2.72 4.67-5 8.67-6.98 2.48-1.23 5-2.18 8.2-3.13a52.6 52.6 0 0112.33-2.2c1.78-.09 5.08.47 6.2 3.13 1.28 3.06-3.95 9.8-13.52 14.58-1 .5-1.99.95-2.96 1.36zm-7.09-12.91c-.75.31-1.5.66-2.25 1.02-3.66 1.82-6.24 3.88-7.88 6.3-.35.51-.6.99-.7 1.37l-.1.22c-.56 1-.68 1.95-.34 2.84.38 1 1.17 1.54 1.36 1.6 2.1.3 4.35.34 6.81.13 3.75-.33 7.9-1.62 12.22-3.78 9.43-4.71 13.12-10.58 12.55-11.94-.7-1.66-3.26-1.9-4.18-1.85-3.92.2-7.8.9-11.85 2.1a54.74 54.74 0 00-5.64 1.99z" fill="#fff"/>
  <ellipse rx="15.68" ry="15.89" transform="matrix(.9935 -.09454 .10646 .99638 180.88 58.76)" fill="#fff"/>
  <path fill-rule="evenodd" clip-rule="evenodd" d="M181.25 67.82a48.7 48.7 0 012.25-10.56c2.28.24 4.62 3.07 4.17 6-.54 3.51-3.23 5.42-6.42 4.56zm.82-13.66c-.73-.34-1.41-.63-2.06-.98-.8-.42-1.65-.87-1.6-1.98a2.72 2.72 0 011.75-2.45c.74-.3 1.62-.3 2.44-.37.14-.01.43.3.44.48a10.6 10.6 0 01-.97 5.3z" fill="#50AD75"/>
  <path fill-rule="evenodd" clip-rule="evenodd" d="M184.97 36.73c6.43.3 11.63 2.75 15.94 7.17a13.53 13.53 0 013.79 12.62 30.12 30.12 0 01-4.9 12.06c-3.73 5.26-8.86 8.02-15.06 8.89-5.94.83-11.56-.06-16.58-3.64-3.1-2.22-4.87-5.37-6-8.98a17.7 17.7 0 01.72-12.47c1.13-2.7 2.04-5.51 4.16-7.61 3.58-3.53 7.51-6.45 12.53-7.54 1.9-.41 3.73-.97 5.4-.5zm-.02 11.55c1.16.25 2.22.47 3.26.72.46.11.92.46 1.36.42.5-.05 1.22-.27 1.43-.64.32-.61-.3-.98-.84-1.15-1.19-.38-2.38-.77-3.59-1.05-.9-.21-1.36-.6-1.16-1.6.07-.34.11-.73.03-1.06-.06-.29-.27-.68-.49-.74-.2-.06-.59.21-.73.45-.2.3-.27.71-.34 1.09-.3 1.55-.29 1.55-1.81 1.84l-.66.12c-2.22.52-3.81 1.75-4.47 4.06-.39 1.33-.18 2.17.94 2.99a28 28 0 002.86 1.79c.81.45 1.15 1.01.9 1.98-.31 1.13-.46 2.3-.73 3.43-.5 2.17-1.03 4.34-1.56 6.59a10.24 10.24 0 01-5.44-3.13c-1.4 1.26-1.37 1.91.12 2.78.92.53 1.84 1.07 2.8 1.52 1.1.51 2.18.95 1.75 2.57-.07.25.34.85.62.93.29.07.93-.24 1-.5.31-1.27 1.23-1.46 2.28-1.57.5-.05 1-.25 1.49-.38 5.5-1.44 7.48-8.84 3.1-12.69-.58-.5-1.13-1.1-1.79-1.47-1.13-.64-1.54-1.38-1.16-2.73.4-1.41.54-2.91.83-4.57z" fill="#50AD75"/>
  <circle transform="matrix(.99466 -.10061 .10067 .99518 149.65 88.55)" fill="#fff" r="10.4"/>
  <path fill-rule="evenodd" clip-rule="evenodd" d="M154.22 93.88a29.9 29.9 0 01-4.11-5.2c.99-1 3.23-1.02 4.43.34 1.45 1.63 1.31 3.66-.32 4.86zm-6.15-5.67c-.44.22-.84.43-1.25.61-.51.22-1.05.45-1.55-.01a1.7 1.7 0 01-.48-1.8c.14-.47.48-.9.76-1.31.05-.07.31-.09.4-.02a6.5 6.5 0 012.13 2.53z" fill="#50AD75"/>
  <path fill-rule="evenodd" clip-rule="evenodd" d="M141 80.07a14.22 14.22 0 019.6-4.9c3-.3 5.5.71 7.44 3.04a18.27 18.27 0 013.77 7.02c1.03 3.82.32 7.35-1.7 10.68-1.92 3.18-4.53 5.54-8.18 6.57-2.26.64-4.44.28-6.58-.58a10.62 10.62 0 01-5.6-5.15c-.84-1.59-1.8-3.11-1.97-4.95-.27-3.08-.1-6.1 1.34-8.94.54-1.06 1-2.17 1.87-2.79zm5.43 4.47c.58-.46 1.09-.89 1.62-1.3.23-.17.57-.26.73-.49.17-.26.35-.69.25-.93-.16-.4-.58-.23-.87-.04-.64.43-1.29.85-1.9 1.32-.45.35-.81.43-1.2-.06-.14-.16-.3-.33-.5-.42-.15-.08-.42-.13-.53-.05-.1.07-.13.36-.08.52.07.22.24.41.39.59.61.74.62.74.16 1.58l-.2.37c-.63 1.27-.67 2.5.16 3.71.48.7.96.93 1.78.7.67-.17 1.32-.42 1.96-.68.54-.22.93-.16 1.29.34.41.58.9 1.1 1.33 1.66l2.5 3.3a6.34 6.34 0 01-3.6 1.41c.04 1.17.37 1.4 1.36 1.02.6-.24 1.22-.48 1.8-.77.68-.33 1.3-.68 1.9.15.1.13.54.17.69.06.14-.1.24-.53.15-.66-.47-.65-.21-1.16.15-1.71.17-.27.27-.58.4-.87 1.47-3.2-1.24-7-4.77-6.39-.47.09-.96.12-1.4.3-.74.3-1.25.2-1.73-.5-.51-.74-1.17-1.38-1.84-2.16z" fill="#50AD75"/>
  <circle cx="153.46" cy="16.04" transform="rotate(-5.78 153.46 16.04)" fill="#fff" r="12.46"/>
  <path fill-rule="evenodd" clip-rule="evenodd" d="M156.48 22.52a34.3 34.3 0 01-2.84-7.04c1.42-.78 3.88-.07 4.77 1.82 1.06 2.25.25 4.44-1.93 5.22zm-4.92-8.22c-.56.1-1.06.21-1.58.27-.63.07-1.29.16-1.7-.52a1.94 1.94 0 01.06-2.12c.3-.48.82-.83 1.26-1.2.08-.06.37 0 .45.1a7.45 7.45 0 011.51 3.48z" fill="#50AD75"/>
  <path fill-rule="evenodd" clip-rule="evenodd" d="M146.42 3.07A16.3 16.3 0 01158.57.8c3.4.65 5.8 2.57 7.18 5.76a20.9 20.9 0 011.87 8.93c-.11 4.53-2.03 8.18-5.32 11.17-3.15 2.87-6.79 4.62-11.13 4.57-2.69-.04-4.97-1.14-7.04-2.77a12.16 12.16 0 01-4.5-7.48c-.39-2.01-.96-4-.54-6.07.7-3.47 1.86-6.73 4.37-9.38.94-1 1.8-2.06 2.96-2.46zm4.53 6.67c.78-.32 1.48-.62 2.19-.9.32-.11.72-.1.96-.3.28-.23.62-.64.58-.94-.05-.48-.56-.44-.94-.33-.84.26-1.69.51-2.5.84-.62.24-1.04.2-1.32-.46-.1-.22-.22-.46-.4-.62-.15-.14-.42-.29-.58-.23-.13.04-.25.36-.25.55.01.26.13.52.23.77.44 1.01.45 1-.33 1.8-.11.1-.24.2-.34.32-1.1 1.2-1.54 2.55-1.03 4.14.3.93.75 1.32 1.73 1.35.8.02 1.59-.05 2.38-.12.66-.06 1.07.12 1.3.79.27.77.64 1.5.93 2.26l1.67 4.43c-1.5.6-2.95.7-4.4.38-.34 1.3-.06 1.66 1.15 1.56.75-.06 1.5-.12 2.24-.25.85-.15 1.65-.33 2.03.78.06.17.54.35.73.28.2-.07.45-.5.39-.68-.31-.86.15-1.34.72-1.83.27-.23.48-.54.72-.81 2.66-3.05.9-8.1-3.17-8.57-.54-.06-1.1-.18-1.63-.13-.9.09-1.44-.18-1.75-1.1-.32-.99-.83-1.9-1.31-2.98z" fill="#50AD75"/>
  <path fill-rule="evenodd" clip-rule="evenodd" d="M279 123.24c.15.1.3.17.45.22l-4.65 26.83c-1.28 7.4-2.53 14.81-3.82 22.22l-6.66 38.06c-7.78-.68-15.56-1.42-23.35-2.04-19.78-1.58-39.57-3.1-59.36-4.68-1.43-.1-2.83-.5-4.24-.76.61-2.96 1.21-5.92 1.84-8.88 2.54-11.93 5.1-23.85 7.65-35.78 2.18-10.2 4.4-20.4 6.52-30.63.9-4.28 1.59-8.6 2.37-12.9l.16.1 23.57 1.85 32.97 2.83 26.56 3.56z" fill="#0A3B5F"/>
  <path fill-rule="evenodd" clip-rule="evenodd" d="M279 123.24l-26.55-3.57c.03-4.45.42-8.94-.04-13.35-.5-4.76-3.78-7.51-8.5-8.31-5.67-.96-10.63 1-15.2 3.92-5.37 3.45-9.3 8-9.22 14.91L195.9 115c8.66-21.54 20.28-37.19 47.99-37.27 9.1-.03 16.99 1.98 23.24 8.9 5.82 6.47 10.02 13.68 10.66 22.6.34 4.68.8 9.34 1.2 14z" fill="#F19020"/>
  <path fill-rule="evenodd" clip-rule="evenodd" d="M157.96 201.68c-5.25-.39-10.53-.58-15.75-1.22-3.71-.45-5.19-2.94-4.32-6.86 1.3-5.88 2.88-11.7 4.22-17.57a1463.7 1463.7 0 006.04-27.4c2.31-11.16 4.46-22.35 6.7-33.52.46-2.37 1.65-3.91 4.37-3.63 6.2.66 12.4 1.29 18.58 1.93-1.07 4.84-2.13 9.69-3.23 14.53l-8.24 36.43c-2.81 12.43-5.58 24.87-8.37 37.3z" fill="#0A3B5F"/>
  <path fill-rule="evenodd" clip-rule="evenodd" d="M157.96 201.67c2.78-12.43 5.56-24.87 8.37-37.3 2.73-12.15 5.5-24.3 8.24-36.43 1.1-4.84 2.16-9.69 3.23-14.54l17.95 1.49c-.78 4.3-1.47 8.63-2.36 12.9-2.13 10.23-4.35 20.43-6.53 30.64-2.56 11.92-5.1 23.85-7.65 35.77-.63 2.97-1.23 5.93-1.84 8.89l-19.41-1.42z" fill="#FBAF17"/>
  <path fill-rule="evenodd" clip-rule="evenodd" d="M296.6 124.35c2.13-.02 4.27-.18 6.4-.05 3.57.2 7.13.59 11.48.97-.88 4.22-1.73 8.56-2.68 12.87-2.2 10.09-4.76 20.1-6.63 30.25-2.12 11.4-3.65 22.93-5.42 34.4-1.1 7.09-5.92 10.95-13.1 10.4-2.15-.16-4.27-.52-6.4-.78l6.15-32.8c1.65-8.82 3.27-17.65 4.9-26.48l5.3-28.78z" fill="#0A3B5F"/>
  <path fill-rule="evenodd" clip-rule="evenodd" d="M296.6 124.35l-5.3 28.78c-1.63 8.83-3.25 17.66-4.9 26.48-2.04 10.94-4.1 21.87-6.15 32.8l-15.93-1.84 6.66-38.06c1.29-7.4 2.54-14.82 3.82-22.22l4.65-26.83c2.16.16 4.33.35 6.5.45 3.54.18 7.1.3 10.65.44z" fill="#FBAF17"/>
  <path fill-rule="evenodd" clip-rule="evenodd" d="M72.77 36.84l-6.04.2c-.43 0-.88.16-1.26.06-.35-.1-.82-.43-.88-.73-.05-.27.33-.83.62-.91a16.2 16.2 0 012.9-.58c1.4-.15 2.79-.19 4.5-.29-.83-1.95-1.6-3.69-2.34-5.44-.3-.74-1.06-1.53-.09-2.28.67-.5 1.27-.02 1.87 1.45.73 1.78 1.43 3.57 2.2 5.52 2.3-1.54 2.2-4.56 4.1-6.15 1.33 1.22 1.4 1.46.65 2.9-.67 1.27-1.4 2.5-2.29 4.07 1.46.13 2.68.25 3.9.33.84.06 1.7.02 2.54.1 1.1.12 1.66.7 1.38 2.11-2.71-.1-5.43-.2-8.51-.33.38 1.18.73 2.14 1 3.13.33 1.16.66 2.33.85 3.52.1.67.07 1.47-1.03 1.8L74.9 39c-2.37 1.96-2.9 5.49-5.98 6.46-1.12-1-.53-1.8.24-2.56a13.7 13.7 0 003.27-4.97c.1-.25.16-.52.33-1.08z" fill="#0A3B5F"/>
  <path fill-rule="evenodd" clip-rule="evenodd" d="M112.73 180.71l-4.27-1.53c-.3-.1-.66-.12-.9-.3-.21-.16-.45-.53-.4-.75.03-.2.45-.48.68-.46.73.06 1.47.2 2.18.4 1.01.27 2 .63 3.22 1.03-.04-1.59-.1-3.01-.13-4.44-.01-.6-.32-1.36.56-1.61.6-.17.9.33.9 1.52.02 1.45.01 2.89.02 4.46 2.03-.44 2.79-2.58 4.55-3.16.6 1.22.58 1.4-.35 2.2-.8.7-1.66 1.36-2.71 2.21.98.5 1.8.91 2.63 1.3.57.28 1.18.49 1.74.78.73.38.96.95.38 1.85l-5.84-2.58c-.06.93-.09 1.7-.17 2.46-.1.9-.18 1.8-.38 2.69-.1.5-.36 1.04-1.21.97l.4-4.94c-2.2.7-3.53 3.02-5.95 2.85-.5-1.01.13-1.4.87-1.72 1.4-.6 2.63-1.43 3.65-2.56.14-.15.25-.32.53-.67z" fill="#127CCB"/>
</svg>