<svg width="96" height="32" viewBox="0 0 96 32" fill="none" xmlns="http://www.w3.org/2000/svg">
  <path fill-rule="evenodd" clip-rule="evenodd" d="M68.95 14.05l.14 1.9a4.36 4.36 0 00-3.03.47c-.56.33-.96.8-.93 1.5.03.71.46 1.2 1.1 1.44.94.33 1.87.7 2.89.68-.13.76-.21 1.54-.4 2.29-.13.54-.45.72-1.1.7-1.4-.06-2.8-.15-4.18-.24-.6-.04-1.18-.12-1.76-.18l.06-.87c.07-1.41-.62-2.52-1.47-3.56a3.76 3.76 0 00-3.74-1.36c-1.4.21-2.28 1.18-3.02 2.24a4.04 4.04 0 00-.9 2.37c-4.33-.55-8.66-1.07-12.99-1.66-2.1-.28-4.2-.7-6.3-1.06a5.43 5.43 0 00-2.4-5.37 4.22 4.22 0 00-4.58-.24 7.44 7.44 0 00-3.43 3.83c-1.37-.27-2.74-.56-4.12-.8-1.52-.25-1.85-1.29-1.66-2.53.04-.29.13-.58.24-.85.84-2.19 1.67-4.38 2.55-6.55a9.9 9.9 0 011.05-1.9 5.92 5.92 0 013.16-2.28 13.7 13.7 0 014.76-.68c3.1.14 6.17.56 9.25.95 2.08.26 4.18.44 6.26.72 5.4.7 10.79 1.43 16.18 2.16.9.12 1.82.27 2.7.5 1.49.37 2.85.99 3.77 2.3-.1.03-.21.07-.31.06-1.96-.12-3.92-.28-5.87-.35-.75-.02-1.5.12-2.24.25-.65.12-1.25.43-1.54 1.06a7.59 7.59 0 00-.66 3.53c.01.36.16.61.56.66.24.04.47.15.7.17.89.1 1.77.2 2.66.25 2.22.16 4.45.32 6.68.45.64.04 1.28 0 1.92 0z" fill="#FBAF17"/>
  <path fill-rule="evenodd" clip-rule="evenodd" d="M90.82 10c-1.37 2.29-3.38 3.98-5.19 6.07.44.11.73.2 1.03.25l8.24 1.3c.29.05.55.23 1.1.47-3.46 2.17-7.08 3.4-10.46 5.34l2.88 3.92c.41.56.84 1.1 1.23 1.68.4.6.37.9-.07 1.5-.42.55-.7.66-1.42.4a9.55 9.55 0 01-1.5-.68l-12.94-7.43c-.26-.15-.5-.32-.75-.45-.41-.22-.56-.52-.51-1 .21-1.88.41-3.78.58-5.67.05-.54.44-.63.81-.76 1.64-.53 3.28-1.04 4.9-1.58 3.55-1.18 7.08-2.38 10.61-3.57.47-.15.96-.46 1.46.22z" fill="#5FCE8C"/>
  <path fill-rule="evenodd" clip-rule="evenodd" d="M22.91 16.93c.73-1.64 1.77-3 3.43-3.83 1.6-.8 3.15-.76 4.58.24a5.43 5.43 0 012.4 5.37c-.57.8-1.09 1.67-1.73 2.42a5.36 5.36 0 01-5.38 1.85 4.4 4.4 0 01-3.47-4.29c.01-.58.12-1.17.17-1.76z" fill="#127CCB"/>
  <path fill-rule="evenodd" clip-rule="evenodd" d="M68.95 14.05c-.64 0-1.28.04-1.92 0-2.23-.13-4.46-.29-6.69-.45-.88-.06-1.76-.15-2.65-.25-.23-.03-.46-.14-.7-.17-.4-.05-.55-.3-.57-.66a7.63 7.63 0 01.66-3.53c.3-.63.9-.94 1.55-1.06.74-.13 1.5-.28 2.23-.25 1.96.07 3.92.23 5.88.35.1 0 .2-.03.3-.05.8.9 1.22 2 1.46 3.15.21.96.3 1.94.45 2.92z" fill="#F19020"/>
  <path fill-rule="evenodd" clip-rule="evenodd" d="M52.61 21.43a4.1 4.1 0 01.9-2.38c.74-1.05 1.63-2.02 3.02-2.23a3.76 3.76 0 013.74 1.36c.85 1.04 1.54 2.14 1.47 3.56-.01.29-.04.58-.07.86-.74.78-1.44 1.6-2.25 2.32a4.23 4.23 0 01-5.1.2 3.68 3.68 0 01-1.46-2.35c-.1-.44-.17-.9-.25-1.34z" fill="#127CCB"/>
  <path fill-rule="evenodd" clip-rule="evenodd" d="M69.12 20.04c-1.02.02-1.95-.35-2.88-.68a1.56 1.56 0 01-1.11-1.45c-.03-.68.36-1.16.93-1.5a4.36 4.36 0 013.03-.45l.03 4.08zM11.77 9.17c.2-.57-.02-.76-.37-.87C7.31 7.05 4.61 4.14 2.3.74 2.07.41 1.88-.25 1.34.1c-.55.35-.07.81.2 1.12 1.28 1.52 2.55 3.06 3.92 4.51a13.3 13.3 0 005.11 3.22c.38.15.82.15 1.2.22zm-1.17 3c-.43-.27-.78-.52-1.16-.7-2.56-1.3-4.83-3-6.9-4.96-.65-.6-1.13-1.38-1.67-2.09C.67 4.17.44 3.8.1 4.1c-.15.13-.13.58-.05.84s.33.46.52.68a28.42 28.42 0 008.49 6.63c.49.25.93.44 1.54-.07zm-4-9.72c.1.27.12.63.3.78 1.63 1.3 3.24 2.6 5.17 3.44.24.1.54.1.79.14.31-.47.1-.77-.27-.91-1.98-.75-3.63-2-5.18-3.38-.14-.13-.36-.16-.55-.24l-.27.17z" fill="#F19020"/>
</svg>
