<svg width="48" height="48" fill="none" xmlns="http://www.w3.org/2000/svg">
  <rect x="6" y="6" width="42" height="42" rx="12" fill="#fff"/>
  <path d="M19.25 30.3c2.73-5.18 4.72-4.71 6.8-6.52.98-.97-.27-3.05 1.26-4.03.97-.7 2.91.14 4.17-.55 1.52-.84 1.38-1.95 3.19-1.95.7 0 1.67.7 2.64.7.59 0 1.22-.12 1.84-.3h.02a16.52 16.52 0 00-2.62-8.77c-1.14-.22-2.45-.16-2.9.73-.7 1.35-1.76 1.67-3.2 1.53-.83-.04-1.24 0-1.75.7-.51.69-.93 1.43-1.67 1.9-.93.6-2 .6-2.96.23-1.49-.56-1.95-2.04-2.55-3.34-.42-.83-1.3-.92-1.71-1.62-.56-.97.04-2.73.5-3.61.75-1.34 1.58-2.5 1.16-4.17-.1-.44-.4-.78-.65-1.14a22.46 22.46 0 00-5.6.2c.75.57 1.4 1.7 1.24 2.75-.16.86-1.1 1.72-1.41 2.58-.47 1.34-.7 1.26-1.65 2.2-1.33 1.49-.47 2.28-.08 3.84.06.23.1.48.13.74l.1.83c.15.83.84 2.08.56 2.91-.42 1.25-1.94 1.95-2.64 3.2-.41 1.25-.14 2.64-1.1 3.6-.98 1.12-2.79 1.26-3.9 2.1-.8.52-1.67 1-2.56 1.28 3.39 6.17 9.83 10.3 16.8 10.28l-.14-.17c-1.44-1.62-2.14-4.11-1.32-6.12z" fill="#127CCB"/>
  <path d="M20.32 5.4c-.47.88-1.07 2.64-.51 3.61.42.7 1.3.79 1.71 1.62.6 1.3 1.06 2.78 2.55 3.33a3.2 3.2 0 002.96-.23c.74-.46 1.16-1.2 1.67-1.9.5-.69.92-.73 1.76-.69 1.43.14 2.5-.18 3.2-1.53.44-.9 1.75-.95 2.89-.73C33.18 3.68 27.04.64 20.82.1c.26.36.55.7.66 1.14.41 1.67-.42 2.83-1.16 4.17zm-9.96 17.55c.97-.98.7-2.36 1.11-3.61.7-1.25 2.22-1.95 2.64-3.2.28-.83-.41-2.08-.55-2.92l-.11-.82a4.26 4.26 0 00-.13-.74c-.39-1.57-1.25-2.35.08-3.84.94-.94 1.18-.86 1.65-2.2.31-.86 1.25-1.72 1.41-2.59.15-1.05-.5-2.17-1.24-2.75C7.56 1.54 1.1 6.98 1.44 17.31c.1 3.27 1 6.33 2.47 9.01.9-.27 1.77-.76 2.56-1.29 1.12-.83 2.92-.97 3.9-2.08zm28.68-3.33v.05c0 .09.13.09.14 0v-.05c0-.09-.13-.09-.14 0 0 .05.05.05.14 0 .01-.09-.13-.09-.14 0z" fill="#5FCE8C"/>
  <path d="M39.11 19.62c.06-.67.08-1.33.06-1.97h-.02a6.8 6.8 0 01-1.84.3c-.97 0-1.95-.7-2.64-.7-1.8 0-1.67 1.11-3.2 1.95-1.25.7-3.19-.14-4.16.55-1.53.97-.28 3.06-1.25 4.03-2.09 1.8-4.08 1.34-6.8 6.53-.83 2-.13 4.5 1.31 6.12l.14.17a17.81 17.81 0 006.73-1.36c5.81-2.48 11.18-9.36 11.67-15.62z" fill="#5FCE8C"/>
  <g opacity=".2" fill="#193448">
    <path d="M39.15 29.7c-.32-.08-.68.16-.78.52-.07.29-.1.58-.17.87a6.7 6.7 0 01-3.3 4.57 4.35 4.35 0 01-6.28-2.19 8.2 8.2 0 01-.54-4.15c.05-.41-.12-.72-.47-.8-.33-.08-.66.1-.79.45-.05.14-.09.29-.1.43l-.07 2.11c.21.74.37 1.6.7 2.4.62 1.48 1.56 2.7 3.13 3.27 1.2.44 2.41.6 3.66.26 3.23-.92 5.24-4.04 5.53-6.96.04-.38-.18-.71-.52-.79z"/>
    <path d="M43.85 32.41a50.76 50.76 0 00-1.23-3.67c-.49-1.31-.97-2.64-1.61-3.87-1.06-2-2.37-3.83-4.18-5.24a2.52 2.52 0 00-2.72-.4c-.85.39-1.7.82-2.4 1.4a125.87 125.87 0 00-5.03 4.3 24.84 24.84 0 00-3.8 4.08c-1.06 1.5-1.22 3-.15 4.56l.02.04c1.42 2.45 3.35 4.5 5.2 6.62.74.85 1.72 1.49 2.59 2.22.91.65 1.88.69 2.89.3l.57-.31c.82-.45 1.66-.88 2.43-1.41 2.5-1.73 4.48-4.07 6.79-6.04.86-.73.9-1.63.63-2.58zm-4.18-1.93c-.29 2.92-2.3 6.04-5.53 6.96a5.8 5.8 0 01-3.66-.26c-1.57-.57-2.51-1.79-3.13-3.27-.33-.8-.5-1.66-.7-2.4.03-.78.04-1.45.08-2.1 0-.15.04-.3.1-.44a.66.66 0 01.78-.45c.35.08.52.39.47.8a8.2 8.2 0 00.54 4.15 4.35 4.35 0 006.27 2.2 6.7 6.7 0 003.3-4.58c.07-.29.1-.58.18-.87.1-.36.46-.6.78-.53.34.08.56.4.52.79z"/>
  </g>
  <path d="M39.34 31.9c-.32-.07-.68.16-.77.52-.08.28-.1.57-.17.85a6.6 6.6 0 01-3.28 4.5 4.33 4.33 0 01-6.23-2.15 8.02 8.02 0 01-.54-4.09c.05-.4-.12-.7-.47-.79-.32-.08-.65.1-.78.45-.05.14-.08.28-.1.42l-.07 2.08c.21.73.37 1.58.7 2.36a5.35 5.35 0 003.1 3.22c1.19.44 2.4.6 3.64.25 3.2-.9 5.2-3.97 5.49-6.85.04-.37-.18-.7-.52-.77z" fill="#fff"/>
  <path d="M44 34.58a49.7 49.7 0 00-1.2-3.62c-.5-1.29-.97-2.6-1.61-3.8a15.6 15.6 0 00-4.15-5.17 2.51 2.51 0 00-2.7-.38c-.84.37-1.68.8-2.4 1.37a133.9 133.9 0 00-4.98 4.23 24.6 24.6 0 00-3.77 4.02c-1.06 1.48-1.21 2.96-.15 4.5l.02.03c1.41 2.4 3.33 4.43 5.16 6.51.73.84 1.7 1.47 2.57 2.2.91.63 1.87.66 2.87.29l.57-.31c.82-.44 1.65-.87 2.41-1.39 2.49-1.7 4.45-4.01 6.74-5.94.85-.72.9-1.6.63-2.54zm-4.14-1.9c-.29 2.87-2.29 5.94-5.5 6.84a5.8 5.8 0 01-3.63-.25 5.35 5.35 0 01-3.1-3.22c-.33-.78-.49-1.63-.7-2.36l.08-2.08a1.43 1.43 0 01.1-.42c.12-.34.45-.53.77-.45.35.09.52.39.47.8a8.02 8.02 0 00.54 4.08c1.07 2.65 4 3.4 6.23 2.16a6.6 6.6 0 003.28-4.5l.16-.86c.1-.36.46-.59.78-.52.34.07.56.4.52.77z" fill="#FBAF17"/>
</svg>
