<svg width="404" height="358" viewBox="0 0 404 358" fill="none" xmlns="http://www.w3.org/2000/svg">
  <path fill-rule="evenodd" clip-rule="evenodd" d="M260.39 94.85c5.22 8.93 10.47 17.83 15.7 26.73 5.31 19.73 11 39.36 15.79 59.2 1.95 7.98 2.7 16.37 2.74 24.58.14 32.5-8.7 61.59-34.5 83.14-15.94 13.33-34.86 20.92-54.82 26.01-32.66 8.42-65.26 6.84-97.8-.75-9.1-2.13-60.39-39.47-62.62-43.5C19.34 224.25 24 129.66 80.6 81.63c26.74-22.7 56.98-32.07 91.63-25.88 23.32 4.18 45.38 12.43 66.34 23.28 7.88 4.08 14.58 10.49 21.83 15.82z" fill="#FFF6E8"/>
  <path fill-rule="evenodd" clip-rule="evenodd" d="M85.62 37.64c-10 1.7-19.67 4.52-28.27 8.5-10.16 4.73-19.57 10.17-27.7 16.3C12.86 75.13 1.67 90.8.9 109.4l.05-.02c-.3 7.2.92 14.8 4.06 22.87.3.73.59 1.46.9 2.18 19.1 43.8 81.23 38.34 124.75 11.6l6.63-5.02c10.55 1.63 31.02 4.83 35.29 5.63 4.06.7 4.37-1.84 2.61-4.15l-15.79-20.8c14.87-17.83 21.25-39.13 11.47-60.5-9.7-21.2-49.57-29.58-85.25-23.56v.01z" fill="#F19020"/>
  <path d="M81 86.89c-2.15-6.19.76-11.3 7.48-11.6 8.23-.38 9.41 9.47 6.94 15.14-3.98 9.16-9.6 16.31-5.47 26.65 1.59 4 8.1 2.25 6.48-1.8-5.98-15.03 17.67-30 .98-43.69-11.94-9.8-27.61 3.52-22.91 17.1 1.42 4.08 7.93 2.32 6.5-1.8zm17.58 47.35c4.34 0 4.34-6.76 0-6.76s-4.34 6.76 0 6.76z" fill="#fff"/>
  <path d="M344.12 163.96c-2.24-.75-4.06-4.6-4.83-7.42-.92-3.36-.46-7.1-.71-10.65-.3-4.24-.73-8.47-1.11-12.7l-2.3-1.28c-2.26 2.86-4.46 5.78-6.81 8.56-2.95 3.47-7.22 3.68-10.65 2.11-2.25-1.03-4.11-4.37-4.83-7.04-1.2-4.49-1.07-9.32-2.02-13.9-.96-4.63-2.96-5.34-7.3-3.32-7.63 3.55-13 2.37-18.66-3.5a16.29 16.29 0 01-2.7-3.73c-2.09-3.93-2.53-8.38-3.29-12.78-2.55 3.3-5.19 6.54-7.65 9.9-6.51 8.94-13.9 16-26.13 15.68-4.38-.12-9.05 1.12-13.17 2.78-9.22 3.73-11.2 15.1-3.75 21.7 4.53 4 9.67 7.37 14.78 10.66 4.12 2.65 4.54 5.06.2 7.32a44.54 44.54 0 01-11.3 4.08c-8.72 1.84-12.83 6.39-13.08 15.3-.49 16.4 7.75 27.62 21.25 35.46 13.7 7.95 28.46 12.3 44.4 11.68 9.98-.38 20.25.2 29.85-2.03 24.25-5.63 40.66-20.43 46.1-45.56 2.41-11.08 3.84-22.37 5.6-33.59.24-1.55-.13-3.2-.22-4.81-3.93 5.25-7.37 10.99-12 15.5-2.02 1.96-6.85 2.53-9.68 1.58zm-59.44-24.83c-4.2.05-5.9-1.98-5.6-6.08-.28-4.11 1.76-5.83 5.82-5.72 3.99.1 5.9 1.96 5.85 6-.06 4.09-2.13 5.75-6.07 5.8z" fill="#FABB1C"/>
  <path d="M376.49 102.95c2.58-8.96 1.04-17.59-4.4-24.96-10.37-14.08-24.12-23.63-41.61-25.3-6.59-.63-13.99 1.9-20.23 4.76-6.45 2.96-12.1 7.85-17.78 12.3-2.67 2.1-4.72 2.76-7.7.82-9.68-6.3-19.41-12.51-29.25-18.56a11.84 11.84 0 00-6.25-1.67c-1.38.04-3.57 1.5-3.86 2.7-.34 1.48.4 4.1 1.57 4.92 6.81 4.82 13.92 9.21 20.87 13.83 7.04 4.68 14.01 9.45 21.02 14.19 2.27 1.18 4.66 2.16 6.78 3.57a7850.26 7850.26 0 0158.22 38.85c4.05 2.73 7.66 6.1 11.46 9.19 4.9 2.94 9.72 6.01 14.71 8.77a255.58 255.58 0 0016.3 8.29c1.78.81 4 .67 6 .97l.9-1.13c-1.1-1.5-1.93-3.35-3.35-4.45-8.77-6.8-17.52-13.65-26.6-20.02-3.92-2.76-4.57-5.37-2.79-9.67a166.07 166.07 0 005.99-17.4z" fill="#088FD4"/>
  <path d="M295.27 88.6c-2.15-1.42-4.58-2.42-6.88-3.61-3.3 4.43-6.6 8.85-9.89 13.29.76 4.43 1.2 8.92 3.3 12.88.71 1.32 1.6 2.59 2.73 3.77 5.72 5.92 11.13 7.1 18.81 3.53 4.38-2.04 6.4-1.31 7.37 3.35.95 4.62.83 9.5 2.04 14.02.72 2.7 2.6 6.07 4.86 7.1 3.47 1.6 7.77 1.38 10.74-2.12 2.38-2.8 4.6-5.76 6.87-8.64l2.32 1.3c.38 4.27.81 8.53 1.12 12.8.26 3.6-.2 7.35.72 10.74.78 2.85 2.6 6.74 4.86 7.5 2.86.95 7.73.37 9.75-1.6 4.67-4.56 8.14-10.35 12.1-15.64l-.16-10.12c-3.86-3.11-7.52-6.53-11.62-9.29a8373 8373 0 00-59.04-39.26z" fill="#04425F"/>
  <path d="M80.52 229.94c.6.69 1.58-.31 1-1-4.34-5-10.07-8.54-16.79-8.9-5.2-.28-9.8 2.12-13.6 5.43a19.86 19.86 0 00-7.15-3.53c-6.7-1.62-13.8 1.8-19.1 5.59-.28.2-.55.44-.81.69a8.48 8.48 0 00-6.57-3.7c-9.86-.77-13.68 12.49-15.28 19.86a82.8 82.8 0 00-1.15 6.82c-.12.9 1.29.88 1.4 0 1.07-8.14 3.5-24.25 13.9-25.26 3.05-.3 5.22 1.14 6.75 3.28-1.8 2.14-2.98 5.03-3.99 7.46-1.1 2.64-2.75 6.97-.59 9.5 2.16 2.53 6.71.1 8.07-2.06 2.21-3.52.9-9-.64-12.5-.33-.78-.7-1.49-1.1-2.16 3.98-4.24 10.94-6.52 16.35-6.45 3.05.04 6.17 1.4 8.88 3.4-.58.55-1.14 1.12-1.68 1.7-3.2 3.5-6.2 9.74-.6 12.55 3.2 1.6 8.94 1.25 10.5-2.55.97-2.37-.23-4.88-1.59-6.82a26.07 26.07 0 00-4.63-5.01 25.08 25.08 0 016.9-3.99c8.04-2.9 16.33 1.64 21.52 7.65zm-54.55 6.39c.52 2.47.55 5.3-.83 7.5-1.17 1.86-5.43 3.03-6.13.24-.96-3.88 2.33-9.32 4.24-12.48.21-.36.45-.7.7-1.04.97 1.8 1.62 3.87 2.02 5.78zm30.44-2.93c1.25 2.2 1.2 4.67-1.16 5.98-3.93 2.2-10.53-.14-8.97-5.36.75-2.5 2.58-4.88 4.8-6.87a23.08 23.08 0 015.33 6.25z" fill="#044D72"/>
  <path d="M286.38 23.1c4.51 1.24 7.1-1.1 7.58-2.81.22-.79.79-4.08-.85-5.95-1.8-2.04-6.47-1.55-7.95-.33a6.22 6.22 0 00-1.89 2.67c-.69 2.44.69 5.76 3.1 6.42z" fill="#F38A17"/>
  <path d="M294.82 7.28c2.55.7 4.02-.62 4.29-1.59.12-.44.44-2.3-.48-3.35-1.02-1.16-3.66-.88-4.5-.2a3.48 3.48 0 00-1.06 1.52c-.4 1.37.39 3.25 1.75 3.62z" fill="#00CA78"/>
  <path fill-rule="evenodd" clip-rule="evenodd" d="M231.92 273.13l-2.3-.38c-1.4-.64-2.81-1.26-4.19-1.94a8.05 8.05 0 01-1.55-1.02c-1.89-1.56-3.14-3.49-3.14-6.03 0-1.57.47-3.03 1.14-4.44a15.28 15.28 0 014.76-5.64c.57-.43 5.2-1.6 5.54-1.54 3.89.74 9.13 5.58 9.18 11.18a8.09 8.09 0 01-2.93 6.58 17.6 17.6 0 01-4.54 2.73c-.62.26-1.31.33-1.97.5z" fill="#F38A17"/>
  <path fill-rule="evenodd" clip-rule="evenodd" d="M267.18 298.73c-1.29-.2-2.57-.42-3.86-.63-2.34-1.08-4.7-2.11-7.02-3.25-.92-.46-1.8-1.07-2.6-1.72-3.16-2.62-5.26-5.84-5.26-10.1 0-2.63.8-5.08 1.91-7.44a25.6 25.6 0 017.99-9.46c.94-.72 8.7-2.69 9.27-2.58 6.53 1.24 15.3 9.35 15.39 18.75.04 4.44-1.5 8.15-4.9 11.02a29.68 29.68 0 01-7.62 4.57c-1.04.44-2.2.57-3.3.84z" fill="#04425F"/>
  <path fill-rule="evenodd" clip-rule="evenodd" d="M283.98 301.3c-.19 2.3-.25 4.17-.52 6-.57 3.92-1.31 7.8-1.89 11.72-.65 4.4-1.3 8.8-1.72 13.22-.14 1.46.43 2.99.75 5.01-.73.92-2.2 1.36-3.82.96-8.07-1.99-16.12-4.04-24.17-6.07-1.06-.26-2.11-.57-3.18-.78-7.67-1.46-14.25-5.2-20.3-9.96-3.28-2.58-6.42-5.33-9.7-7.9-4.14-3.25-7.14-7.42-9.63-11.97a110.68 110.68 0 01-9.14-21.6c-1.65-5.6-3.52-11.24-2.92-17.19.4-4 .48-8.07 2.07-11.91.86-2.09 1.13-4.42 1.69-6.62.96-3.78 2.23-4.59 5.94-3.76 2.61.57 5.22 1.18 7.81 1.8 3.26.78 3.52 1.13 3.44 4.43-.2 8.85 1.31 17.35 5.09 25.43a31.48 31.48 0 007.41 9.94c6.14 5.6 13.24 9.66 20.97 12.66 6.13 2.37 12.5 3.59 19 4.43 4.2.54 8.35 1.39 12.82 2.16z" fill="#088FD4"/>
  <path d="M142.16 254.73l-12.94 101.6 17.22 1.03 6.06-102.56c-.58.3-1.15.6-1.72.92-3.04 1.1-5.94.95-8.62-.99z" fill="#04425F"/>
  <path d="M168.36 217.09c-.96-.22-2.05.46-2.35 1.55-.23.84-.33 1.71-.54 2.56-1.45 5.92-4.64 10.55-10.05 13.48-6.78 3.67-15.55 1.3-18.69-6.76a24.3 24.3 0 01-1.45-12.36c.16-1.22-.34-2.13-1.4-2.4-.97-.26-1.95.28-2.35 1.32a4 4 0 00-.3 1.27c-.12 1.97-.2 3.95-.32 6.28.6 2.21 1.07 4.77 2.01 7.14 1.78 4.44 4.55 8.09 9.23 9.87 3.56 1.36 7.2 1.9 10.94.9 9.7-2.61 15.83-11.83 16.8-20.5.14-1.14-.51-2.12-1.53-2.35z" fill="#fff"/>
  <path d="M182.33 225.36c-1.03-3.7-2.22-7.37-3.53-10.98-1.43-3.91-2.81-7.88-4.7-11.57-3.07-6-6.94-11.47-12.29-15.75-2.52-2.01-5.28-2.5-8.13-1.26a33.1 33.1 0 00-7.24 4.04 372.89 372.89 0 00-15.19 12.61c-4.19 3.64-8.2 7.46-11.51 11.99-3.24 4.43-3.75 8.89-.63 13.57l.06.1c4.17 7.34 9.85 13.54 15.3 19.89 2.18 2.56 5.09 4.5 7.67 6.72l.02.01c2.69 1.94 5.58 2.1 8.62 1a101 101 0 011.72-.93c2.48-1.3 5-2.55 7.3-4.1 7.56-5.05 13.57-11.94 20.54-17.69 2.6-2.13 2.77-4.81 1.99-7.65zm-12.43-5.92c-.98 8.67-7.11 17.89-16.8 20.5-3.75 1-7.38.46-10.94-.9-4.69-1.78-7.45-5.43-9.23-9.87-.95-2.37-1.41-4.93-2.02-7.14.11-2.33.2-4.3.32-6.28.03-.43.14-.87.3-1.27.4-1.04 1.39-1.58 2.36-1.33 1.06.28 1.55 1.2 1.39 2.4a24.3 24.3 0 001.45 12.37c3.15 8.06 11.91 10.43 18.69 6.76 5.4-2.93 8.6-7.56 10.05-13.48.2-.85.32-1.72.55-2.56.3-1.1 1.38-1.77 2.34-1.55 1.02.23 1.67 1.21 1.54 2.35z" fill="#FABB1C"/>
</svg>