<svg xmlns="http://www.w3.org/2000/svg" width="48" height="48" fill="none">
  <rect width="42" height="42" y="6" fill="#fff" rx="12"/>
  <path fill="#436783" fill-opacity=".1" d="M13.7 6.6c.22-.26.33-.64.3-1.02-.14-.5-.42-.88-.93-1.07a1.28 1.28 0 0 0-1.31.22c-.4.32-.55.76-.47 1.27l.05.29c-1.11.36-2 1.04-2.74 1.94-.72.9-1.39 1.81-1.84 2.88a7.64 7.64 0 0 0-.62 3.16 49.73 49.73 0 0 0 .18 3.07c.04.43.14.84.24 1.26l.03.12c.08.3.12.5.16.7.05.27.1.52.23.94.05.17.14.34.23.5.05.08.09.15.12.23.15.12.31.22.48.29.22.1.47.12.74.06 1.66-.4 12.63-5.83 18.47-8.77a344.98 344.98 0 0 0 3.62-1.83l1.03-.52c.29-.14.64-.3 1.16-.57 1.19-.6.84-2.59-.88-1.85-1.56.66-1.83.81-2.54 1.19l-.25.13-.9.5a39.96 39.96 0 0 1-1.3.74l-.63.35a1.9 1.9 0 0 0-.05-.09l-.05-.13a6.92 6.92 0 0 0-1.92-2.86 9.45 9.45 0 0 0-4.37-2.33 9.39 9.39 0 0 0-3.53-.23c-.55.06-1.09.15-1.63.24l-.56.1a.72.72 0 0 0-.16.04l-.07.03c.04.38-.07.76-.29 1.03z"/>
  <path fill="#436783" fill-opacity=".1" fill-rule="evenodd" d="m27 14.55-.04.6.03-.59.03-.4c.25.74.5 1.43.66 1.6a24.78 24.78 0 0 0 3.78 3.07c1.1.79 2.18 1.56 3.02 2.34a3.76 3.76 0 0 1 1.33 2.28c.1.88-.2 1.67-1 2.3-.26.2-.34.36-.24.64a28.91 28.91 0 0 1 1.32 4.66 9.07 9.07 0 0 1-.85 5.79 9.25 9.25 0 0 1-2.72 3.56c-.85.64-1.82 1.18-2.8 1.66a15.9 15.9 0 0 1-6.28 1.64c-1.48.06-2.89-.18-4.24-.61-1.02-.33-2-.72-2.87-1.28a10.07 10.07 0 0 0-.95-.52l-.28-.14a3.25 3.25 0 0 1-1.27 1.43c-.71.43-1.5.68-2.31.8-.38.07-.79.13-1.16.07a4.36 4.36 0 0 1-2.54-1.54 15.48 15.48 0 0 1-3.67-8.73 8.6 8.6 0 0 1 .67-3.46 132.22 132.22 0 0 0 1.56-3.64l.3-.63c.5-1 1.4-2.83 1.4-3.48 0-.2-.03-.4-.07-.59.22.1.47.13.74.06 1.67-.4 12.64-5.83 18.47-8.76l.03.3-.03 1.2-.02.37zM15.22 40.3zm4.13-3.37zm3.53-3.61a4.58 4.58 0 0 0-.94-2.83c-.17-.24-.36-.46-.54-.67-.42-.5-.83-1-1.03-1.64a.41.41 0 0 0-.07-.1c0-.02-.02-.04-.03-.05l.03.04a.41.41 0 0 1 .07.1c.2.65.61 1.15 1.03 1.64.19.22.37.44.54.67.6.85.97 1.8.94 2.84z" clip-rule="evenodd"/>
  <path fill="#127CCB" d="M37.89 29.05a28.91 28.91 0 0 0-1.32-4.66c-.1-.28-.02-.44.23-.64a2.42 2.42 0 0 0 1-2.3 3.76 3.76 0 0 0-1.32-2.28c-1.9-1.76-5.07-3.52-6.8-5.4-.16-.18-.4-.87-.66-1.6l-.06.97c-.29.6-.55 1.22-.87 1.81a7.11 7.11 0 0 1-2.33 2.5c-.37.25-.7.55-1.04.82-.5.4-1.04.77-1.48 1.23a5.78 5.78 0 0 0-1.7 3.5c-.11 1.09.15 2.1.73 3.02.03.05.08.1.1.16.28.93 1.03 1.55 1.57 2.3.6.85.97 1.8.94 2.84-.02.6-.38 1.08-.78 1.52-.41.44-.92.7-1.48.88-.38.12-.82.16-1.04.58-.1.2-.2.41-.23.63a4.2 4.2 0 0 1-.45 1.51c-.36.66-.97.91-1.67 1.03l-1.62.27c-.3.06-.43.26-.4.56l-.05.15a5.3 5.3 0 0 1-.26.7c.41.21.84.4 1.23.65A12 12 0 0 0 21 41.09a12 12 0 0 0 4.24.6c2.18-.1 4.3-.66 6.28-1.63a17.1 17.1 0 0 0 2.8-1.66 9.26 9.26 0 0 0 2.72-3.56 9.07 9.07 0 0 0 .85-5.8zm-9.7-8.8a.87.87 0 0 1 .57-1.35c.82-.15 1.42.4 1.3 1.24a.8.8 0 0 1-.34.49c-.42.26-1.26.02-1.53-.39z"/>
  <path fill="#fff" d="M30.2 20.18c.15-.96-.54-1.6-1.49-1.42a1 1 0 0 0-.65 1.55c.3.47 1.27.74 1.76.44a.92.92 0 0 0 .38-.57z"/>
  <path fill="#0A3B5F" d="M17.21 38.3c-.03-.3.1-.5.4-.55.54-.1 1.08-.2 1.62-.28.7-.11 1.31-.37 1.67-1.03.25-.47.38-.98.44-1.5.03-.23.14-.44.24-.64.22-.41.66-.45 1.04-.57a3.29 3.29 0 0 0 1.48-.89c.4-.44.76-.92.78-1.52a4.57 4.57 0 0 0-.94-2.83c-.54-.76-1.29-1.38-1.57-2.3-.02-.06-.07-.11-.1-.16a4.67 4.67 0 0 1-.73-3.03 5.77 5.77 0 0 1 1.7-3.5c.44-.46.98-.82 1.48-1.22.34-.28.67-.58 1.04-.82a7.1 7.1 0 0 0 2.33-2.5c.32-.6.58-1.2.87-1.81l.06-.98.03-1.2-.03-.3c-5.83 2.94-16.8 8.37-18.47 8.77-.27.07-.52.03-.74-.06.04.2.07.4.07.6 0 .82-1.52 3.66-1.7 4.1a132.22 132.22 0 0 1-1.56 3.64 8.6 8.6 0 0 0-.67 3.46c-.02 1.06.74 5.45 3.67 8.73.68.76 1.5 1.37 2.54 1.54a6.31 6.31 0 0 0 3.47-.87 3.25 3.25 0 0 0 1.27-1.42c.1-.22.19-.46.26-.7l.05-.15z"/>
  <path fill="#FBAF17" d="M10.54 19.44c1.68-.4 12.65-5.83 18.48-8.77a344.86 344.86 0 0 0 3.62-1.83c.72-.39 1.01-.5 2.2-1.1 1.18-.59.83-2.58-.9-1.84-1.71.74-1.86.84-2.78 1.32-.48.25-.93.53-1.4.8l-1.43.8c-.04-.1-.09-.16-.1-.22a6.92 6.92 0 0 0-1.92-2.87 9.46 9.46 0 0 0-4.37-2.33 9.4 9.4 0 0 0-3.53-.23c-.74.08-1.46.22-2.2.33-.07.01-.14.05-.22.08.04.38-.07.76-.29 1.03-.44.52-1.34.8-2 .17-.14-.14-.24-.33-.36-.5a5.8 5.8 0 0 0-2.74 1.95c-.72.9-1.39 1.81-1.84 2.88a7.65 7.65 0 0 0-.62 3.16 49.73 49.73 0 0 0 .18 3.08c.04.46.16.92.27 1.37.18.72.18.92.39 1.64.07.25.23.49.35.73.15.12.31.22.48.29.22.1.47.13.73.06z"/>
  <path fill="#0A3B5F" d="M15.7 4.6c.22-.26.33-.64.3-1.02-.14-.5-.42-.88-.93-1.07a1.28 1.28 0 0 0-1.31.22c-.4.32-.55.76-.47 1.27l.05.29c.12.16.22.34.37.48.65.65 1.55.36 1.99-.16z"/>
  <path fill="#fff" stroke="#fff" stroke-width=".5" d="M28.58 28.32a.58.58 0 0 0-.33.75c.03.07 1.2 2.92 5.26 2.92.66 0 1.38-.07 2.18-.24a.58.58 0 0 0 .45-.69.58.58 0 0 0-.69-.45c-2.48.53-4 .04-4.9-.57a3.38 3.38 0 0 1-1.22-1.4.58.58 0 0 0-.75-.32z"/>
  <path fill="#F19020" d="M46.24.11a2.65 2.65 0 0 0-2.97 1.1 2.58 2.58 0 0 0-.31.66 2.7 2.7 0 0 0-.3-.67A2.65 2.65 0 0 0 39.67.11c-1.4.42-2.06 2.23-1.63 3.75.46 1.69 3.16 5.54 4.91 5.54 1.91 0 4.45-3.85 4.91-5.54.42-1.52-.23-3.33-1.63-3.75z"/>
</svg>
